<svg width="32" height="32" viewBox="0 0 32 32" fill="none" xmlns="http://www.w3.org/2000/svg">
<path fill-rule="evenodd" clip-rule="evenodd" d="M29.7072 3.70712L3.70718 29.7071L2.29297 28.2929L28.293 2.29291L29.7072 3.70712Z" fill="#136CFA"/>
<path d="M1.77051 25.987C0.774017 25.8731 0 25.027 0 24V8C0 6.89543 0.895432 6 2 6H21.7575L19.7575 8H2V17H10.7575L6.75749 21H2V24H3.75749L1.77051 25.987Z" fill="#333333"/>
<path d="M10.2428 26H30C31.1046 26 32 25.1046 32 24V8C32 6.97312 31.2261 6.127 30.2297 6.01305L28.2428 8H30V17H19.2428L15.2428 21H30V24H12.2428L10.2428 26Z" fill="#333333"/>
</svg>