<?xml version="1.0" encoding="UTF-8" standalone="no"?>
<!DOCTYPE svg PUBLIC "-//W3C//DTD SVG 1.1//EN" "http://www.w3.org/Graphics/SVG/1.1/DTD/svg11.dtd">
<svg version="1.1" xmlns="http://www.w3.org/2000/svg" xmlns:xlink="http://www.w3.org/1999/xlink" preserveAspectRatio="xMidYMid meet" viewBox="0 0 350 100" width="350" height="100"><defs><path d="M132.3 8.84C131.9 9.9 131.88 10.85 140.78 34.89C145.69 47.77 152.47 66.5 155.92 76.32C156.33 77.52 158.42 83.49 162.16 94.25C168.06 94.49 171.33 94.62 171.99 94.65C177.43 94.78 182.48 94.52 183.28 93.98C185.93 92.13 196.69 69.42 202.8 52.42C209.97 32.76 216.08 9.66 214.88 6.74C214.22 5.01 211.96 4.61 204.39 4.61C203.74 4.61 200.51 4.61 194.7 4.61C193.74 9.95 193.21 12.91 193.1 13.51C190.05 30.11 173.45 75.92 173.18 68.62C173.18 66.1 152.07 6.87 150.74 5.54C149.15 3.95 142.96 4.41 141.12 5.02C139.27 5.63 132.7 7.65 132.3 8.84Z" id="j44Gn24aUE"></path><path d="M232.68 47.55C238.25 53.26 243.43 56.31 254.19 59.76C264.55 63.08 268.8 66.4 268.8 71.05C268.8 77.16 262.82 79.55 250.21 78.62C244.76 78.22 238.25 77.03 235.86 76.1C230.68 74.11 228.96 75.7 228.96 82.61C228.96 90.71 240.51 96.28 257.38 96.28C280.48 96.28 294.16 80.75 287.79 61.62C284.73 52.59 278.23 47.41 263.62 42.5C250.6 38.25 246.22 35.06 246.22 29.88C246.22 18.46 265.88 17.4 269.46 28.56C270.66 32.14 278.63 32.14 284.6 28.42C288.59 26.03 288.98 25.24 288.19 21.52C286.2 11.56 271.72 3.19 256.45 3.46C251.93 3.46 246.62 3.99 244.63 4.65C225.77 10.36 219.26 33.6 232.68 47.55Z" id="adhrQ8LD3"></path><path d="M67.61 84.86C72.65 94.82 74.78 95.62 100.28 96.02C101.77 96.05 109.25 96.23 122.72 96.55C122.72 91.77 122.72 89.11 122.72 88.58C122.72 82.61 122.19 80.48 120.59 79.82C119.4 79.42 111.83 79.02 103.46 79.02C92.57 79.02 88.06 78.49 87 77.16C86.2 76.23 85.14 71.72 84.74 67.2C84.68 66.66 84.37 63.96 83.81 59.1L100.01 59.1L116.08 59.1C116.08 55.83 116.08 54.02 116.08 53.66C116.08 43.7 115.28 43.16 98.81 43.16C97.84 43.16 92.97 43.16 84.21 43.16L84.21 33.2L84.21 23.24L102.67 23.24L121.12 23.24C121.44 19.42 121.62 17.29 121.66 16.87C122.72 5.58 123.78 5.98 92.04 5.98C90.17 5.98 80.83 5.98 64.02 5.98L64.55 42.77C64.99 67.73 66.01 81.76 67.61 84.86Z" id="aH9YElo3O"></path><path d="M3.07 47.28C2.4 48.34 1.87 51 1.87 53.39C1.87 57.37 3.33 58.7 25.24 74.37C38.12 83.54 49.55 90.97 50.74 90.71C52.07 90.44 53.13 89.11 53.26 87.65C53.53 85.66 48.48 81.28 31.22 69.06C18.87 60.3 9.04 52.59 9.44 51.8C9.71 51.13 20.33 43.03 33.08 33.87C51.01 20.99 56.19 16.6 56.32 14.21C56.32 8.5 50.48 11.42 27.37 28.42C14.62 37.72 3.73 46.22 3.07 47.28Z" id="b4yo4BEkvP"></path><path d="M301.82 20.74C306.73 24.06 327.89 38.52 332.54 41.7C333.1 42.09 336.22 44.01 341.91 47.45C339.75 49.36 338.56 50.4 338.35 50.57C337.2 51.54 334.83 53.46 331.26 56.32L327.65 59.26C318.78 65.44 311.78 70.34 306.65 73.97C296.16 81.28 292.84 84.33 292.7 86.59C292.7 88.71 293.5 89.64 295.36 89.64C298.28 89.64 323.78 70.35 325.9 68.62C327.9 66.9 333.07 63.08 337.85 59.5C341.16 57.06 345.65 53.15 346.12 52.41C346.64 51.59 347.9 50.18 347.99 49.12C348.01 48.8 348.42 46.6 347.73 45.14C346.9 43.35 344.91 41.69 343.56 40.64C341.57 39.18 338.78 37.32 337.85 36.52C337.23 36.08 333.4 33.51 326.34 28.82C322.15 26.08 317.8 23.11 313.29 19.92C301.33 11.69 298.15 10.23 296.29 12.22C293.9 14.61 293.85 15.3 301.82 20.74Z" id="b1qhw1i9KG"></path></defs><g><g><g><use xlink:href="#j44Gn24aUE" opacity="1" fill="#000000" fill-opacity="1"></use><g><use xlink:href="#j44Gn24aUE" opacity="1" fill-opacity="0" stroke="#000000" stroke-width="1" stroke-opacity="0"></use></g></g><g><use xlink:href="#adhrQ8LD3" opacity="1" fill="#000000" fill-opacity="1"></use><g><use xlink:href="#adhrQ8LD3" opacity="1" fill-opacity="0" stroke="#000000" stroke-width="1" stroke-opacity="0"></use></g></g><g><use xlink:href="#aH9YElo3O" opacity="1" fill="#000000" fill-opacity="1"></use><g><use xlink:href="#aH9YElo3O" opacity="1" fill-opacity="0" stroke="#000000" stroke-width="1" stroke-opacity="0"></use></g></g><g><use xlink:href="#b4yo4BEkvP" opacity="1" fill="#000000" fill-opacity="1"></use><g><use xlink:href="#b4yo4BEkvP" opacity="1" fill-opacity="0" stroke="#000000" stroke-width="1" stroke-opacity="0"></use></g></g><g><use xlink:href="#b1qhw1i9KG" opacity="1" fill="#000000" fill-opacity="1"></use><g><use xlink:href="#b1qhw1i9KG" opacity="1" fill-opacity="0" stroke="#000000" stroke-width="1" stroke-opacity="0"></use></g></g></g></g></svg>